<svg width="512" height="512" viewBox="0 0 512 512" fill="none" xmlns="http://www.w3.org/2000/svg" role="img" aria-labelledby="title desc">
  <title id="title">Zayro Mark</title>
  <desc id="desc">Ícone do Zayro com estrada estilizada e símbolo de localização.</desc>
  <defs>
    <linearGradient id="g1" x1="100" y1="70" x2="420" y2="430" gradientUnits="userSpaceOnUse">
      <stop stop-color="#1E3A5F"/>
      <stop offset="1" stop-color="#2E5A8F"/>
    </linearGradient>
    <linearGradient id="g2" x1="220" y1="110" x2="320" y2="360" gradientUnits="userSpaceOnUse">
      <stop stop-color="#4A90D9"/>
      <stop offset="1" stop-color="#87CEEB"/>
    </linearGradient>
  </defs>
  <rect x="16" y="16" width="480" height="480" rx="96" fill="url(#g1)"/>
  <path d="M256 92C197 92 149 140 149 199C149 283 256 420 256 420C256 420 363 283 363 199C363 140 315 92 256 92Z" fill="white"/>
  <circle cx="256" cy="201" r="54" fill="url(#g2)"/>
  <path d="M184 314C208 283 234 267 256 267C278 267 304 283 328 314" stroke="url(#g2)" stroke-width="22" stroke-linecap="round"/>
  <path d="M256 151V247" stroke="#1E3A5F" stroke-width="18" stroke-linecap="round" stroke-dasharray="28 18"/>
</svg>
